<svg xmlns="http://www.w3.org/2000/svg" xmlns:xlink="http://www.w3.org/1999/xlink" width="1080" zoomAndPan="magnify" viewBox="0 0 810 809.999993" height="1080" preserveAspectRatio="xMidYMid meet" version="1.0"><defs><filter x="0%" y="0%" width="100%" height="100%" id="c7eed25dc3"><feColorMatrix values="0 0 0 0 1 0 0 0 0 1 0 0 0 0 1 0 0 0 1 0" color-interpolation-filters="sRGB"/></filter><mask id="2f02616ca2"><g filter="url(#c7eed25dc3)"><rect x="-81" width="972" fill="#000000" y="-80.999999" height="971.999992" fill-opacity="0.22"/></g></mask><clipPath id="30abc3bf82"><path d="M 0.257812 0.257812 L 797.742188 0.257812 L 797.742188 797.742188 L 0.257812 797.742188 Z M 0.257812 0.257812 " clip-rule="nonzero"/></clipPath><clipPath id="f5cfe87d88"><path d="M 399 0.257812 C 178.78125 0.257812 0.257812 178.78125 0.257812 399 C 0.257812 619.21875 178.78125 797.742188 399 797.742188 C 619.21875 797.742188 797.742188 619.21875 797.742188 399 C 797.742188 178.78125 619.21875 0.257812 399 0.257812 Z M 399 0.257812 " clip-rule="nonzero"/></clipPath><clipPath id="05d43101d4"><path d="M 0.257812 0.257812 L 797.742188 0.257812 L 797.742188 797.742188 L 0.257812 797.742188 Z M 0.257812 0.257812 " clip-rule="nonzero"/></clipPath><clipPath id="6b14801faf"><path d="M 399 0.257812 C 178.78125 0.257812 0.257812 178.78125 0.257812 399 C 0.257812 619.21875 178.78125 797.742188 399 797.742188 C 619.21875 797.742188 797.742188 619.21875 797.742188 399 C 797.742188 178.78125 619.21875 0.257812 399 0.257812 Z M 399 0.257812 " clip-rule="nonzero"/></clipPath><clipPath id="fc882691d6"><rect x="0" width="798" y="0" height="798"/></clipPath><clipPath id="ba46c649fe"><rect x="0" width="798" y="0" height="798"/></clipPath><clipPath id="48ba8453ad"><path d="M 92.78125 92.78125 L 717.21875 92.78125 L 717.21875 717.21875 L 92.78125 717.21875 Z M 92.78125 92.78125 " clip-rule="nonzero"/></clipPath><clipPath id="cf05c8544e"><path d="M 405 92.78125 C 232.566406 92.78125 92.78125 232.566406 92.78125 405 C 92.78125 577.433594 232.566406 717.21875 405 717.21875 C 577.433594 717.21875 717.21875 577.433594 717.21875 405 C 717.21875 232.566406 577.433594 92.78125 405 92.78125 Z M 405 92.78125 " clip-rule="nonzero"/></clipPath><clipPath id="d979b6e0da"><path d="M 0.78125 0.78125 L 625.21875 0.78125 L 625.21875 625.21875 L 0.78125 625.21875 Z M 0.78125 0.78125 " clip-rule="nonzero"/></clipPath><clipPath id="56e15a4cb8"><path d="M 313 0.78125 C 140.566406 0.78125 0.78125 140.566406 0.78125 313 C 0.78125 485.433594 140.566406 625.21875 313 625.21875 C 485.433594 625.21875 625.21875 485.433594 625.21875 313 C 625.21875 140.566406 485.433594 0.78125 313 0.78125 Z M 313 0.78125 " clip-rule="nonzero"/></clipPath><clipPath id="a4060d2ff9"><rect x="0" width="626" y="0" height="626"/></clipPath><clipPath id="4146758543"><path d="M 167 227 L 643 227 L 643 606.957031 L 167 606.957031 Z M 167 227 " clip-rule="nonzero"/></clipPath></defs><g mask="url(#2f02616ca2)"><g transform="matrix(1, 0, 0, 1, 6, 6)"><g clip-path="url(#ba46c649fe)"><g clip-path="url(#30abc3bf82)"><g clip-path="url(#f5cfe87d88)"><g transform="matrix(1, 0, 0, 1, 0, 0.000000000000039968)"><g clip-path="url(#fc882691d6)"><g clip-path="url(#05d43101d4)"><g clip-path="url(#6b14801faf)"><path fill="#00bf63" d="M 0.257812 0.257812 L 797.742188 0.257812 L 797.742188 797.742188 L 0.257812 797.742188 Z M 0.257812 0.257812 " fill-opacity="1" fill-rule="nonzero"/></g></g></g></g></g></g></g></g></g><g clip-path="url(#48ba8453ad)"><g clip-path="url(#cf05c8544e)"><g transform="matrix(1, 0, 0, 1, 92, 92)"><g clip-path="url(#a4060d2ff9)"><g clip-path="url(#d979b6e0da)"><g clip-path="url(#56e15a4cb8)"><path fill="#00bf63" d="M 0.78125 0.78125 L 625.21875 0.78125 L 625.21875 625.21875 L 0.78125 625.21875 Z M 0.78125 0.78125 " fill-opacity="1" fill-rule="nonzero"/></g></g></g></g></g></g><g clip-path="url(#4146758543)"><path fill="#ffffff" d="M 626.160156 240.449219 L 623.160156 238.199219 C 613.40625 230.320312 601.398438 226.945312 590.144531 228.070312 C 578.136719 229.195312 567.257812 234.445312 559.378906 243.828125 L 458.082031 363.132812 L 398.054688 435.539062 L 354.160156 488.4375 L 324.148438 456.550781 L 307.265625 438.914062 L 247.988281 377.011719 C 239.359375 368.007812 228.101562 363.507812 216.097656 362.757812 C 204.84375 362.003906 192.835938 366.882812 184.207031 375.136719 L 181.207031 378.136719 C 162.824219 395.019531 162.449219 424.285156 179.332031 442.292969 L 237.855469 503.820312 L 254.738281 522.203125 L 322.269531 593.113281 C 330.148438 600.992188 340.652344 606.242188 350.785156 606.617188 C 351.535156 606.617188 351.535156 606.617188 351.910156 606.617188 C 352.660156 606.617188 353.035156 606.617188 354.160156 606.617188 C 354.160156 606.617188 354.160156 606.617188 354.910156 606.617188 C 356.785156 606.617188 358.289062 606.617188 360.539062 606.617188 C 372.542969 605.492188 383.425781 600.238281 391.300781 590.859375 L 491.847656 471.554688 L 531.242188 423.910156 L 631.789062 304.605469 C 647.546875 285.46875 645.292969 256.957031 626.160156 240.449219 Z M 626.160156 240.449219 " fill-opacity="1" fill-rule="nonzero"/></g></svg>