<svg xmlns="http://www.w3.org/2000/svg" xmlns:xlink="http://www.w3.org/1999/xlink" width="1080" zoomAndPan="magnify" viewBox="0 0 810 809.999993" height="1080" preserveAspectRatio="xMidYMid meet" version="1.0"><defs><filter x="0%" y="0%" width="100%" height="100%" id="c5c174c046"><feColorMatrix values="0 0 0 0 1 0 0 0 0 1 0 0 0 0 1 0 0 0 1 0" color-interpolation-filters="sRGB"/></filter><mask id="108d39dd7d"><g filter="url(#c5c174c046)"><rect x="-81" width="972" fill="#000000" y="-80.999999" height="971.999992" fill-opacity="0.34"/></g></mask><clipPath id="c772ea68a3"><path d="M 0.257812 0.257812 L 797.742188 0.257812 L 797.742188 797.742188 L 0.257812 797.742188 Z M 0.257812 0.257812 " clip-rule="nonzero"/></clipPath><clipPath id="d8841e0efb"><path d="M 399 0.257812 C 178.78125 0.257812 0.257812 178.78125 0.257812 399 C 0.257812 619.21875 178.78125 797.742188 399 797.742188 C 619.21875 797.742188 797.742188 619.21875 797.742188 399 C 797.742188 178.78125 619.21875 0.257812 399 0.257812 Z M 399 0.257812 " clip-rule="nonzero"/></clipPath><clipPath id="f4da9bdc07"><path d="M 0.257812 0.257812 L 797.742188 0.257812 L 797.742188 797.742188 L 0.257812 797.742188 Z M 0.257812 0.257812 " clip-rule="nonzero"/></clipPath><clipPath id="46ad5b2be5"><path d="M 399 0.257812 C 178.78125 0.257812 0.257812 178.78125 0.257812 399 C 0.257812 619.21875 178.78125 797.742188 399 797.742188 C 619.21875 797.742188 797.742188 619.21875 797.742188 399 C 797.742188 178.78125 619.21875 0.257812 399 0.257812 Z M 399 0.257812 " clip-rule="nonzero"/></clipPath><clipPath id="16838bc419"><rect x="0" width="798" y="0" height="798"/></clipPath><clipPath id="69c0f981b1"><rect x="0" width="798" y="0" height="798"/></clipPath><clipPath id="c328fac1a9"><path d="M 92.78125 97.75 L 717.21875 97.75 L 717.21875 722.1875 L 92.78125 722.1875 Z M 92.78125 97.75 " clip-rule="nonzero"/></clipPath><clipPath id="bb4a2b81b8"><path d="M 405 97.75 C 232.566406 97.75 92.78125 237.535156 92.78125 409.96875 C 92.78125 582.402344 232.566406 722.1875 405 722.1875 C 577.433594 722.1875 717.21875 582.402344 717.21875 409.96875 C 717.21875 237.535156 577.433594 97.75 405 97.75 Z M 405 97.75 " clip-rule="nonzero"/></clipPath><clipPath id="f7aa19d64a"><path d="M 0.78125 0.75 L 625.21875 0.75 L 625.21875 625.1875 L 0.78125 625.1875 Z M 0.78125 0.75 " clip-rule="nonzero"/></clipPath><clipPath id="d07b9dcbf3"><path d="M 313 0.75 C 140.566406 0.75 0.78125 140.535156 0.78125 312.96875 C 0.78125 485.402344 140.566406 625.1875 313 625.1875 C 485.433594 625.1875 625.21875 485.402344 625.21875 312.96875 C 625.21875 140.535156 485.433594 0.75 313 0.75 Z M 313 0.75 " clip-rule="nonzero"/></clipPath><clipPath id="16e03d677c"><rect x="0" width="626" y="0" height="626"/></clipPath><clipPath id="9924db8f70"><path d="M 179 191 L 631 191 L 631 643 L 179 643 Z M 179 191 " clip-rule="nonzero"/></clipPath><clipPath id="c62f5628cd"><path d="M 85.972656 424.804688 L 397.097656 97.617188 L 724.285156 408.746094 L 413.160156 735.933594 Z M 85.972656 424.804688 " clip-rule="nonzero"/></clipPath><clipPath id="c26f2d52d0"><path d="M 85.972656 424.804688 L 397.097656 97.617188 L 724.285156 408.746094 L 413.160156 735.933594 Z M 85.972656 424.804688 " clip-rule="nonzero"/></clipPath></defs><g mask="url(#108d39dd7d)"><g transform="matrix(1, 0, 0, 1, 6, 6)"><g clip-path="url(#69c0f981b1)"><g clip-path="url(#c772ea68a3)"><g clip-path="url(#d8841e0efb)"><g transform="matrix(1, 0, 0, 1, 0, 0.000000000000039968)"><g clip-path="url(#16838bc419)"><g clip-path="url(#f4da9bdc07)"><g clip-path="url(#46ad5b2be5)"><path fill="#ffde59" d="M 0.257812 0.257812 L 797.742188 0.257812 L 797.742188 797.742188 L 0.257812 797.742188 Z M 0.257812 0.257812 " fill-opacity="1" fill-rule="nonzero"/></g></g></g></g></g></g></g></g></g><g clip-path="url(#c328fac1a9)"><g clip-path="url(#bb4a2b81b8)"><g transform="matrix(1, 0, 0, 1, 92, 97)"><g clip-path="url(#16e03d677c)"><g clip-path="url(#f7aa19d64a)"><g clip-path="url(#d07b9dcbf3)"><path fill="#ffde59" d="M 0.78125 0.75 L 625.21875 0.75 L 625.21875 625.1875 L 0.78125 625.1875 Z M 0.78125 0.75 " fill-opacity="1" fill-rule="nonzero"/></g></g></g></g></g></g><g clip-path="url(#9924db8f70)"><g clip-path="url(#c62f5628cd)"><g clip-path="url(#c26f2d52d0)"><path fill="#ffffff" d="M 241.46875 261.277344 C 155.589844 351.589844 159.183594 494.425781 249.496094 580.304688 C 339.808594 666.183594 482.644531 662.589844 568.523438 572.277344 C 654.402344 481.964844 650.808594 339.128906 560.496094 253.25 C 470.183594 167.371094 327.347656 170.964844 241.46875 261.277344 Z M 517.300781 298.675781 C 540.605469 320.835938 555.765625 348.277344 562.996094 377.332031 L 245.230469 385.328125 C 250.972656 355.949219 264.734375 327.773438 286.894531 304.472656 C 348.921875 239.242188 452.082031 236.65625 517.300781 298.675781 Z M 292.691406 534.878906 C 269.390625 512.722656 254.226562 485.277344 247.011719 456.222656 L 564.78125 448.226562 C 559.019531 477.609375 545.257812 505.78125 523.097656 529.082031 C 461.078125 594.300781 357.917969 596.90625 292.691406 534.878906 Z M 292.691406 534.878906 " fill-opacity="1" fill-rule="nonzero"/></g></g></g></svg>