<svg xmlns="http://www.w3.org/2000/svg" xmlns:xlink="http://www.w3.org/1999/xlink" width="1080" zoomAndPan="magnify" viewBox="0 0 810 809.999993" height="1080" preserveAspectRatio="xMidYMid meet" version="1.0"><defs><filter x="0%" y="0%" width="100%" height="100%" id="c4764dfde7"><feColorMatrix values="0 0 0 0 1 0 0 0 0 1 0 0 0 0 1 0 0 0 1 0" color-interpolation-filters="sRGB"/></filter><mask id="9038264ec5"><g filter="url(#c4764dfde7)"><rect x="-81" width="972" fill="#000000" y="-80.999999" height="971.999992" fill-opacity="0.34"/></g></mask><clipPath id="f8e7349cbd"><path d="M 0.257812 0.257812 L 797.742188 0.257812 L 797.742188 797.742188 L 0.257812 797.742188 Z M 0.257812 0.257812 " clip-rule="nonzero"/></clipPath><clipPath id="59bf690da8"><path d="M 399 0.257812 C 178.78125 0.257812 0.257812 178.78125 0.257812 399 C 0.257812 619.21875 178.78125 797.742188 399 797.742188 C 619.21875 797.742188 797.742188 619.21875 797.742188 399 C 797.742188 178.78125 619.21875 0.257812 399 0.257812 Z M 399 0.257812 " clip-rule="nonzero"/></clipPath><clipPath id="8a028034b4"><path d="M 0.257812 0.257812 L 797.742188 0.257812 L 797.742188 797.742188 L 0.257812 797.742188 Z M 0.257812 0.257812 " clip-rule="nonzero"/></clipPath><clipPath id="a676f08526"><path d="M 399 0.257812 C 178.78125 0.257812 0.257812 178.78125 0.257812 399 C 0.257812 619.21875 178.78125 797.742188 399 797.742188 C 619.21875 797.742188 797.742188 619.21875 797.742188 399 C 797.742188 178.78125 619.21875 0.257812 399 0.257812 Z M 399 0.257812 " clip-rule="nonzero"/></clipPath><clipPath id="078446cb58"><rect x="0" width="798" y="0" height="798"/></clipPath><clipPath id="74ef816658"><rect x="0" width="798" y="0" height="798"/></clipPath><clipPath id="80a7db3e6f"><path d="M 92.78125 92.78125 L 717.21875 92.78125 L 717.21875 717.21875 L 92.78125 717.21875 Z M 92.78125 92.78125 " clip-rule="nonzero"/></clipPath><clipPath id="f4552876d2"><path d="M 405 92.78125 C 232.566406 92.78125 92.78125 232.566406 92.78125 405 C 92.78125 577.433594 232.566406 717.21875 405 717.21875 C 577.433594 717.21875 717.21875 577.433594 717.21875 405 C 717.21875 232.566406 577.433594 92.78125 405 92.78125 Z M 405 92.78125 " clip-rule="nonzero"/></clipPath><clipPath id="8ae20a1380"><path d="M 0.78125 0.78125 L 625.21875 0.78125 L 625.21875 625.21875 L 0.78125 625.21875 Z M 0.78125 0.78125 " clip-rule="nonzero"/></clipPath><clipPath id="6b00ff273e"><path d="M 313 0.78125 C 140.566406 0.78125 0.78125 140.566406 0.78125 313 C 0.78125 485.433594 140.566406 625.21875 313 625.21875 C 485.433594 625.21875 625.21875 485.433594 625.21875 313 C 625.21875 140.566406 485.433594 0.78125 313 0.78125 Z M 313 0.78125 " clip-rule="nonzero"/></clipPath><clipPath id="82b968248a"><rect x="0" width="626" y="0" height="626"/></clipPath><clipPath id="7ce9e0de40"><path d="M 179.339844 191.121094 L 630.839844 191.121094 L 630.839844 642.621094 L 179.339844 642.621094 Z M 179.339844 191.121094 " clip-rule="nonzero"/></clipPath></defs><g mask="url(#9038264ec5)"><g transform="matrix(1, 0, 0, 1, 6, 6)"><g clip-path="url(#74ef816658)"><g clip-path="url(#f8e7349cbd)"><g clip-path="url(#59bf690da8)"><g transform="matrix(1, 0, 0, 1, 0, 0.000000000000039968)"><g clip-path="url(#078446cb58)"><g clip-path="url(#8a028034b4)"><g clip-path="url(#a676f08526)"><path fill="#ff3131" d="M 0.257812 0.257812 L 797.742188 0.257812 L 797.742188 797.742188 L 0.257812 797.742188 Z M 0.257812 0.257812 " fill-opacity="1" fill-rule="nonzero"/></g></g></g></g></g></g></g></g></g><g clip-path="url(#80a7db3e6f)"><g clip-path="url(#f4552876d2)"><g transform="matrix(1, 0, 0, 1, 92, 92)"><g clip-path="url(#82b968248a)"><g clip-path="url(#8ae20a1380)"><g clip-path="url(#6b00ff273e)"><path fill="#ff3131" d="M 0.78125 0.78125 L 625.21875 0.78125 L 625.21875 625.21875 L 0.78125 625.21875 Z M 0.78125 0.78125 " fill-opacity="1" fill-rule="nonzero"/></g></g></g></g></g></g><g clip-path="url(#7ce9e0de40)"><path fill="#ffffff" d="M 404.996094 191.121094 C 280.371094 191.121094 179.339844 292.152344 179.339844 416.777344 C 179.339844 541.402344 280.371094 642.433594 404.996094 642.433594 C 529.621094 642.433594 630.652344 541.402344 630.652344 416.777344 C 630.652344 292.152344 529.621094 191.121094 404.996094 191.121094 Z M 567.96875 416.777344 C 567.96875 448.933594 558.53125 478.832031 542.457031 504.09375 L 317.691406 279.328125 C 342.941406 263.242188 372.839844 253.804688 404.996094 253.804688 C 495.007812 253.804688 567.96875 326.777344 567.96875 416.777344 Z M 242.023438 416.777344 C 242.023438 384.621094 251.460938 354.722656 267.546875 329.472656 L 492.3125 554.238281 C 467.050781 570.3125 437.152344 579.75 404.996094 579.75 C 314.996094 579.75 242.023438 506.789062 242.023438 416.777344 Z M 242.023438 416.777344 " fill-opacity="1" fill-rule="nonzero"/></g></svg>